<svg width="167" height="146" viewBox="0 0 167 146" fill="none" xmlns="http://www.w3.org/2000/svg">
<rect width="167" height="144.75" transform="translate(0 0.5)" fill="#1E2C30"/>
<line x1="34" y1="25" x2="39" y2="25" stroke="white"/>
<path d="M50.6799 31.725C51.7199 31.725 52.6224 31.5 53.3874 31.05C54.1524 30.595 54.7449 29.9675 55.1649 29.1675C55.5849 28.3675 55.7949 27.45 55.7949 26.415C55.7949 26.39 55.7924 26.295 55.7874 26.13C55.7824 25.965 55.7749 25.85 55.7649 25.785H51.8799V27.36H53.5899C53.4249 28.215 53.0949 28.84 52.5999 29.235C52.1099 29.63 51.5149 29.82 50.8149 29.805C49.7899 29.79 49.0199 29.45 48.5049 28.785C47.9949 28.12 47.7399 27.225 47.7399 26.1C47.7399 24.975 47.9949 24.0725 48.5049 23.3925C49.0199 22.7125 49.7899 22.38 50.8149 22.395C51.5049 22.4 52.0699 22.5925 52.5099 22.9725C52.9549 23.3475 53.2749 23.85 53.4699 24.48L55.5549 24.18C55.2849 23 54.7524 22.0875 53.9574 21.4425C53.1624 20.7975 52.0699 20.475 50.6799 20.475C49.7399 20.475 48.8824 20.695 48.1074 21.135C47.3374 21.575 46.7224 22.215 46.2624 23.055C45.8074 23.89 45.5799 24.905 45.5799 26.1C45.5799 27.015 45.7149 27.8225 45.9849 28.5225C46.2599 29.2225 46.6324 29.81 47.1024 30.285C47.5774 30.76 48.1224 31.12 48.7374 31.365C49.3524 31.605 49.9999 31.725 50.6799 31.725ZM58.798 31.5H65.848V29.595H60.838V26.82H64.948V24.915H60.838V22.605H65.848V20.7H58.798V31.5ZM71.6507 31.5H73.6907V22.605H77.0957V20.7H68.2457V22.605H71.6507V31.5ZM83.8498 31.5H85.8898V27.12H89.5498V25.08H85.8898V22.74H90.4498V20.7H83.8498V31.5ZM93.4539 31.5H100.144V29.595H95.4939V20.7H93.4539V31.5ZM102.169 31.5H104.269L104.952 29.25H109.017L109.714 31.5H111.814L108.514 20.7H105.469L102.169 31.5ZM105.529 27.345L106.969 22.6125L108.432 27.345H105.529ZM116.27 31.5H118.31V22.605H121.715V20.7H112.865V22.605H116.27V31.5Z" fill="white"/>
<line x1="128" y1="25" x2="133" y2="25" stroke="white"/>
<path d="M49.9248 93.25C47.5632 93.25 45.3423 92.7625 43.2623 91.7875C41.204 90.8125 39.4273 89.4583 37.9323 87.725C36.4373 85.9917 35.3648 83.9767 34.7148 81.68L43.2298 79.405C43.5115 80.51 44.0098 81.4633 44.7248 82.265C45.4615 83.0667 46.3065 83.695 47.2598 84.15C48.2348 84.5833 49.2315 84.8 50.2498 84.8C51.5932 84.8 52.8173 84.475 53.9223 83.825C55.049 83.175 55.9373 82.2975 56.5873 81.1925C57.259 80.0875 57.5948 78.8633 57.5948 77.52C57.5948 76.1767 57.259 74.9525 56.5873 73.8475C55.9373 72.7425 55.049 71.865 53.9223 71.215C52.8173 70.565 51.5932 70.24 50.2498 70.24C48.6032 70.24 47.2598 70.5217 46.2198 71.085C45.1798 71.6267 44.3998 72.1467 43.8798 72.645L36.4048 70.37L37.8348 45.475H63.3798V53.73H42.7098L45.8298 50.805L44.8548 66.86L43.3598 65.04C44.5298 64.0867 45.8623 63.3933 47.3573 62.96C48.8523 62.5267 50.2498 62.31 51.5498 62.31C54.4965 62.31 57.0857 62.9708 59.3173 64.2925C61.5707 65.5925 63.3257 67.3908 64.5823 69.6875C65.8607 71.9625 66.4998 74.5733 66.4998 77.52C66.4998 80.4667 65.7307 83.1317 64.1923 85.515C62.654 87.8767 60.6282 89.7617 58.1148 91.17C55.6015 92.5567 52.8715 93.25 49.9248 93.25Z" fill="white"/>
<path d="M88.3962 93.25C84.9295 93.25 81.8962 92.5242 79.2962 91.0725C76.6962 89.6208 74.6704 87.595 73.2187 84.995C71.767 82.395 71.0412 79.3617 71.0412 75.895V61.855C71.0412 58.3883 71.767 55.355 73.2187 52.755C74.6704 50.155 76.6962 48.1292 79.2962 46.6775C81.8962 45.2258 84.9295 44.5 88.3962 44.5C91.8629 44.5 94.8962 45.2258 97.4962 46.6775C100.096 48.1292 102.122 50.155 103.574 52.755C105.025 55.355 105.751 58.3883 105.751 61.855V75.895C105.751 79.3617 105.025 82.395 103.574 84.995C102.122 87.595 100.096 89.6208 97.4962 91.0725C94.8962 92.5242 91.8629 93.25 88.3962 93.25ZM88.3962 84.865C89.9562 84.865 91.3645 84.4967 92.6212 83.76C93.8779 83.0233 94.8745 82.0267 95.6112 80.77C96.3479 79.5133 96.7162 78.105 96.7162 76.545V61.14C96.7162 59.58 96.3479 58.1717 95.6112 56.915C94.8745 55.6583 93.8779 54.6617 92.6212 53.925C91.3645 53.1883 89.9562 52.82 88.3962 52.82C86.8362 52.82 85.4279 53.1883 84.1712 53.925C82.9145 54.6617 81.9179 55.6583 81.1812 56.915C80.4445 58.1717 80.0762 59.58 80.0762 61.14V76.545C80.0762 78.105 80.4445 79.5133 81.1812 80.77C81.9179 82.0267 82.9145 83.0233 84.1712 83.76C85.4279 84.4967 86.8362 84.865 88.3962 84.865Z" fill="white"/>
<path d="M111.24 92.275L109.74 90.775L129.885 70.675L131.385 72.16L111.24 92.275ZM126.885 92.725C125.895 92.725 124.99 92.485 124.17 92.005C123.36 91.515 122.71 90.865 122.22 90.055C121.73 89.235 121.485 88.325 121.485 87.325C121.485 86.345 121.735 85.445 122.235 84.625C122.735 83.805 123.395 83.15 124.215 82.66C125.035 82.17 125.925 81.925 126.885 81.925C127.875 81.925 128.78 82.17 129.6 82.66C130.42 83.14 131.07 83.79 131.55 84.61C132.04 85.42 132.285 86.325 132.285 87.325C132.285 88.325 132.04 89.235 131.55 90.055C131.07 90.865 130.42 91.515 129.6 92.005C128.78 92.485 127.875 92.725 126.885 92.725ZM126.885 90.73C127.495 90.73 128.06 90.575 128.58 90.265C129.1 89.955 129.515 89.545 129.825 89.035C130.135 88.515 130.29 87.945 130.29 87.325C130.29 86.705 130.135 86.14 129.825 85.63C129.515 85.11 129.1 84.695 128.58 84.385C128.06 84.075 127.495 83.92 126.885 83.92C126.265 83.92 125.695 84.075 125.175 84.385C124.665 84.695 124.25 85.11 123.93 85.63C123.62 86.14 123.465 86.705 123.465 87.325C123.465 87.945 123.62 88.515 123.93 89.035C124.25 89.545 124.665 89.955 125.175 90.265C125.695 90.575 126.265 90.73 126.885 90.73ZM114.24 81.025C113.25 81.025 112.345 80.785 111.525 80.305C110.705 79.815 110.05 79.165 109.56 78.355C109.08 77.535 108.84 76.625 108.84 75.625C108.84 74.645 109.09 73.745 109.59 72.925C110.09 72.105 110.75 71.45 111.57 70.96C112.39 70.47 113.28 70.225 114.24 70.225C115.23 70.225 116.13 70.47 116.94 70.96C117.76 71.44 118.415 72.09 118.905 72.91C119.395 73.72 119.64 74.625 119.64 75.625C119.64 76.625 119.395 77.535 118.905 78.355C118.415 79.165 117.76 79.815 116.94 80.305C116.13 80.785 115.23 81.025 114.24 81.025ZM114.24 79.03C114.86 79.03 115.425 78.875 115.935 78.565C116.455 78.255 116.87 77.845 117.18 77.335C117.49 76.815 117.645 76.245 117.645 75.625C117.645 75.005 117.49 74.44 117.18 73.93C116.87 73.41 116.455 72.995 115.935 72.685C115.425 72.375 114.86 72.22 114.24 72.22C113.62 72.22 113.05 72.375 112.53 72.685C112.02 72.995 111.61 73.41 111.3 73.93C110.99 74.44 110.835 75.005 110.835 75.625C110.835 76.245 110.99 76.815 111.3 77.335C111.61 77.845 112.02 78.255 112.53 78.565C113.05 78.875 113.62 79.03 114.24 79.03Z" fill="white"/>
<path d="M43.3252 124.25H47.5192C47.6212 124.25 47.8312 124.247 48.1492 124.241C48.4672 124.235 48.7732 124.214 49.0672 124.178C50.1112 124.052 50.9962 123.689 51.7222 123.089C52.4482 122.489 53.0002 121.727 53.3782 120.803C53.7562 119.879 53.9452 118.868 53.9452 117.77C53.9452 116.672 53.7562 115.661 53.3782 114.737C53.0002 113.813 52.4482 113.051 51.7222 112.451C50.9962 111.851 50.1112 111.488 49.0672 111.362C48.7732 111.326 48.4672 111.305 48.1492 111.299C47.8312 111.293 47.6212 111.29 47.5192 111.29H43.3252V124.25ZM45.8092 121.946V113.594H47.5192C47.6812 113.594 47.9002 113.597 48.1762 113.603C48.4522 113.609 48.7012 113.636 48.9232 113.684C49.4692 113.792 49.9222 114.047 50.2822 114.449C50.6422 114.851 50.9092 115.343 51.0832 115.925C51.2632 116.507 51.3532 117.122 51.3532 117.77C51.3532 118.388 51.2662 118.988 51.0922 119.57C50.9242 120.152 50.6602 120.65 50.3002 121.064C49.9462 121.478 49.4872 121.742 48.9232 121.856C48.7012 121.898 48.4522 121.925 48.1762 121.937C47.9002 121.943 47.6812 121.946 47.5192 121.946H45.8092ZM56.6445 113.18H59.0925V111.02H56.6445V113.18ZM56.6445 124.25H59.0925V114.53H56.6445V124.25ZM65.9487 124.52C67.2207 124.52 68.2167 124.235 68.9367 123.665C69.6567 123.095 70.0167 122.312 70.0167 121.316C70.0167 120.56 69.7827 119.963 69.3147 119.525C68.8527 119.087 68.0667 118.724 66.9567 118.436C66.2007 118.244 65.6367 118.088 65.2647 117.968C64.8987 117.848 64.6557 117.731 64.5357 117.617C64.4217 117.503 64.3647 117.362 64.3647 117.194C64.3647 116.912 64.4997 116.696 64.7697 116.546C65.0457 116.396 65.4087 116.336 65.8587 116.366C66.8127 116.438 67.3347 116.846 67.4247 117.59L69.9267 117.14C69.8007 116.258 69.3687 115.559 68.6307 115.043C67.8927 114.521 66.9507 114.26 65.8047 114.26C64.6287 114.26 63.6897 114.536 62.9877 115.088C62.2857 115.64 61.9347 116.384 61.9347 117.32C61.9347 118.064 62.1777 118.652 62.6637 119.084C63.1497 119.51 63.9867 119.876 65.1747 120.182C65.8767 120.368 66.3927 120.518 66.7227 120.632C67.0587 120.746 67.2747 120.863 67.3707 120.983C67.4667 121.097 67.5147 121.25 67.5147 121.442C67.5147 121.748 67.3947 121.988 67.1547 122.162C66.9147 122.33 66.5727 122.414 66.1287 122.414C65.5887 122.414 65.1417 122.285 64.7877 122.027C64.4397 121.769 64.2147 121.412 64.1127 120.956L61.6107 121.334C61.7727 122.348 62.2287 123.134 62.9787 123.692C63.7347 124.244 64.7247 124.52 65.9487 124.52ZM76.6384 124.52C77.7664 124.52 78.7144 124.241 79.4824 123.683C80.2504 123.125 80.7724 122.33 81.0484 121.298L78.5464 120.776C78.4024 121.244 78.1864 121.604 77.8984 121.856C77.6104 122.108 77.1904 122.234 76.6384 122.234C75.9004 122.234 75.3424 121.973 74.9644 121.451C74.5924 120.923 74.4064 120.236 74.4064 119.39C74.4064 118.58 74.5834 117.905 74.9374 117.365C75.2974 116.819 75.8644 116.546 76.6384 116.546C77.0884 116.546 77.4904 116.687 77.8444 116.969C78.2044 117.251 78.4564 117.644 78.6004 118.148L81.0484 117.5C80.8324 116.498 80.3344 115.709 79.5544 115.133C78.7804 114.551 77.8204 114.26 76.6744 114.26C75.6844 114.26 74.8264 114.482 74.1004 114.926C73.3744 115.37 72.8104 115.979 72.4084 116.753C72.0124 117.527 71.8144 118.406 71.8144 119.39C71.8144 120.362 72.0064 121.235 72.3904 122.009C72.7744 122.783 73.3264 123.395 74.0464 123.845C74.7664 124.295 75.6304 124.52 76.6384 124.52ZM87.3189 124.52C88.2909 124.52 89.1459 124.304 89.8839 123.872C90.6279 123.434 91.2069 122.831 91.6209 122.063C92.0409 121.289 92.2509 120.398 92.2509 119.39C92.2509 118.388 92.0439 117.503 91.6299 116.735C91.2159 115.961 90.6369 115.355 89.8929 114.917C89.1549 114.479 88.2969 114.26 87.3189 114.26C86.3589 114.26 85.5099 114.476 84.7719 114.908C84.0339 115.34 83.4549 115.943 83.0349 116.717C82.6149 117.485 82.4049 118.376 82.4049 119.39C82.4049 120.392 82.6089 121.28 83.0169 122.054C83.4309 122.822 84.0069 123.425 84.7449 123.863C85.4829 124.301 86.3409 124.52 87.3189 124.52ZM87.3189 122.234C86.5569 122.234 85.9779 121.979 85.5819 121.469C85.1919 120.953 84.9969 120.26 84.9969 119.39C84.9969 118.544 85.1829 117.86 85.5549 117.338C85.9329 116.81 86.5209 116.546 87.3189 116.546C88.0929 116.546 88.6749 116.804 89.0649 117.32C89.4609 117.836 89.6589 118.526 89.6589 119.39C89.6589 120.224 89.4639 120.908 89.0739 121.442C88.6899 121.97 88.1049 122.234 87.3189 122.234ZM98.208 124.538C98.91 124.538 99.522 124.421 100.044 124.187C100.566 123.953 101.004 123.641 101.358 123.251V124.25H103.518V114.53H101.052V119.462C101.052 120.062 100.983 120.548 100.845 120.92C100.713 121.286 100.542 121.565 100.332 121.757C100.122 121.943 99.897 122.069 99.657 122.135C99.417 122.201 99.192 122.234 98.982 122.234C98.46 122.234 98.055 122.117 97.767 121.883C97.485 121.649 97.281 121.358 97.155 121.01C97.029 120.662 96.954 120.317 96.93 119.975C96.906 119.627 96.894 119.342 96.894 119.12V114.53H94.41V119.984C94.41 120.146 94.422 120.404 94.446 120.758C94.47 121.112 94.539 121.505 94.653 121.937C94.767 122.363 94.956 122.774 95.22 123.17C95.49 123.566 95.865 123.893 96.345 124.151C96.825 124.409 97.446 124.538 98.208 124.538ZM106.375 124.25H108.859V119.318C108.859 118.712 108.925 118.226 109.057 117.86C109.195 117.494 109.369 117.218 109.579 117.032C109.789 116.84 110.014 116.711 110.254 116.645C110.494 116.579 110.719 116.546 110.929 116.546C111.451 116.546 111.853 116.663 112.135 116.897C112.423 117.131 112.63 117.422 112.756 117.77C112.882 118.118 112.957 118.466 112.981 118.814C113.005 119.156 113.017 119.438 113.017 119.66V124.25H115.501V118.796C115.501 118.634 115.489 118.376 115.465 118.022C115.441 117.668 115.372 117.278 115.258 116.852C115.144 116.42 114.952 116.006 114.682 115.61C114.418 115.214 114.046 114.887 113.566 114.629C113.086 114.371 112.465 114.242 111.703 114.242C111.001 114.242 110.389 114.359 109.867 114.593C109.345 114.827 108.907 115.139 108.553 115.529V114.53H106.375V124.25ZM124.029 124.25V122.216C123.453 122.294 122.928 122.318 122.454 122.288C121.98 122.258 121.635 122.072 121.419 121.73C121.305 121.55 121.242 121.31 121.23 121.01C121.224 120.704 121.221 120.362 121.221 119.984V116.42H124.029V114.53H121.221V111.83H118.773V114.53H117.117V116.42H118.773V120.128C118.773 120.71 118.779 121.232 118.791 121.694C118.803 122.15 118.929 122.6 119.169 123.044C119.433 123.518 119.817 123.863 120.321 124.079C120.831 124.289 121.407 124.4 122.049 124.412C122.697 124.43 123.357 124.376 124.029 124.25Z" fill="white"/>
</svg>
